<svg width="24" height="24" viewBox="0 0 24 24" fill="none" xmlns="http://www.w3.org/2000/svg"><rect width="24" height="24" fill="none" rx="0" ry="0"></rect><path fill-rule="evenodd" clip-rule="evenodd" d="M8.9 8.49999C8.9 6.78791 10.2879 5.39999 12 5.39999C13.7121 5.39999 15.1 6.78791 15.1 8.49999C15.1 10.2121 13.7121 11.6 12 11.6C10.2879 11.6 8.9 10.2121 8.9 8.49999ZM12 6.59999C10.9507 6.59999 10.1 7.45065 10.1 8.49999C10.1 9.54933 10.9507 10.4 12 10.4C13.0493 10.4 13.9 9.54933 13.9 8.49999C13.9 7.45065 13.0493 6.59999 12 6.59999Z" fill="#000000"></path><path fill-rule="evenodd" clip-rule="evenodd" d="M12.4714 20.8758C12.1731 21.0173 11.8269 21.0173 11.5286 20.8758C11.287 20.7612 11.1431 20.5577 11.053 20.4123C10.9613 20.2643 10.8645 20.0706 10.7591 19.8598L6.48827 11.3182C4.4396 7.22084 7.41905 2.4 12 2.4C16.5809 2.4 19.5604 7.22085 17.5117 11.3182L13.241 19.8597C13.1355 20.0706 13.0387 20.2643 12.947 20.4123C12.8569 20.5577 12.713 20.7612 12.4714 20.8758ZM12 19.6518C12.0464 19.5651 12.1031 19.4522 12.1789 19.3006L16.4384 10.7815C18.0881 7.48207 15.6889 3.6 12 3.6C8.31111 3.6 5.91186 7.48207 7.56158 10.7815L11.8211 19.3006C11.8969 19.4522 11.9536 19.5651 12 19.6518Z#007AFF
" fill="#000000"></path></svg>